<svg id="Слой_1" data-name="Слой 1" xmlns="http://www.w3.org/2000/svg" xmlns:xlink="http://www.w3.org/1999/xlink" viewBox="0 0 423.72 398.37"><defs><style>.cls-1,.cls-2,.cls-3,.cls-4,.cls-5,.cls-6{fill-rule:evenodd;}.cls-1{fill:url(#linear-gradient);}.cls-2{fill:#01052d;opacity:0.2;}.cls-3{fill:url(#linear-gradient-2);}.cls-4{fill:url(#linear-gradient-3);}.cls-5{fill:url(#linear-gradient-4);}.cls-6{fill:#740107;opacity:0.1;}.cls-10,.cls-7,.cls-8,.cls-9{fill:#fff;}.cls-7{opacity:0.6;}.cls-8{opacity:0.3;}.cls-9{opacity:0.7;}.cls-10{opacity:0.4;}.cls-11{fill:#ffcf15;}.cls-12{fill:#fff100;}.cls-13{fill:#fbbc1d;}.cls-14{fill:#fbba1e;}</style><linearGradient id="linear-gradient" x1="343.36" y1="467.16" x2="336.34" y2="118.51" gradientUnits="userSpaceOnUse"><stop offset="0" stop-color="#114fee"/><stop offset="1" stop-color="#3edc81"/></linearGradient><linearGradient id="linear-gradient-2" x1="270.88" y1="398.07" x2="266.2" y2="131.32" gradientUnits="userSpaceOnUse"><stop offset="0" stop-color="#0131b9"/><stop offset="1" stop-color="#c835f8"/></linearGradient><linearGradient id="linear-gradient-3" x1="432.89" y1="274.35" x2="-7.7" y2="146.63" gradientUnits="userSpaceOnUse"><stop offset="0" stop-color="red"/><stop offset="1" stop-color="#ff0"/></linearGradient><linearGradient id="linear-gradient-4" x1="376.47" y1="215.02" x2="71.08" y2="23.7" xlink:href="#linear-gradient-3"/></defs><path class="cls-1" d="M411.47,169.55q-4.73,0-9.39.26a80.64,80.64,0,0,0-55.14-22.28c-12.83-.06-22,2.44-33.38,7.07-.38.16-.75.33-1.12.51,0,0,0,0,0-.05a165.46,165.46,0,0,0-36.3,20.86l-63.2,103A166.85,166.85,0,0,0,210.38,308a165.83,165.83,0,0,0,83.84,144q2.91,1.65,5.89,3.2a164.93,164.93,0,0,0,25.37-88.14q0-6.71-.52-13.27a167.75,167.75,0,0,0-2.27-17.22,164.14,164.14,0,0,1-32.55-10.32h0l0,0c-4.79-36.23-.7-63.32,24-79.3.38-2.48,11.32-3.91,11.6-6.43a165.32,165.32,0,0,1,141.65-61.3,164,164,0,0,0-34.76-8.34A166.15,166.15,0,0,0,411.47,169.55Z" transform="translate(-43.67 -56.87)"/><path class="cls-2" d="M448.9,173.79A165.61,165.61,0,0,0,294.26,452.06c1.94,1.1,3.9,2.17,5.88,3.19a164.76,164.76,0,0,0,25.38-88.13q0-6.71-.53-13.28a162.39,162.39,0,0,0-2.27-17.22,170.91,170.91,0,0,1-32.6-10.33l35.66-85.76a166,166,0,0,1,72.15-51.76q7.79-2.84,15.9-4.91,7-1.79,14.22-3a165.89,165.89,0,0,1,26.74-2.16c4.24,0,8.44.17,12.6.48-4.79-1.72-9.57-3.19-14.5-4.46Z" transform="translate(-43.67 -56.87)"/><path class="cls-3" d="M276.12,175.92l-63.2,103a166.49,166.49,0,0,0,11.74,96.47c50.5-21,86.09-64.61,98-116.86a159,159,0,0,0,4-36.09,165.06,165.06,0,0,0-14.29-67.39A165.19,165.19,0,0,0,276.12,175.92Z" transform="translate(-43.67 -56.87)"/><path class="cls-2" d="M245.92,335.14a167.17,167.17,0,0,0,2.38,28.12,166.46,166.46,0,0,0,43.07-38.53l.06-.08c.8-1,1.58-2,2.35-3.08l.07-.09c.77-1,1.53-2.07,2.28-3.12l.07-.1c.75-1.05,1.49-2.12,2.21-3.19l0-.07c.73-1.08,1.44-2.16,2.14-3.24l0-.1c.7-1.09,1.38-2.18,2.06-3.29l.06-.1c.67-1.1,1.34-2.23,2-3.35l.05-.08c.64-1.13,1.28-2.27,1.9-3.4l.06-.11c.62-1.15,1.23-2.3,1.82-3.46l0-.07c.52-1,1-2.05,1.54-3.08a196.92,196.92,0,0,0,14.2-44.32c.14-.9.3-1.8.44-2.7h0v0c.21-1.34.4-2.7.57-4.07v-.05a164.63,164.63,0,0,0,1.33-21.07,167.09,167.09,0,0,0-2.37-28.12A165.47,165.47,0,0,0,245.92,335.14Z" transform="translate(-43.67 -56.87)"/><path class="cls-4" d="M323.23,243.73a166.27,166.27,0,0,0-76-87.84,164.44,164.44,0,0,0-52.53-18.06c-1.05-.17-2.09-.33-3.15-.48a166.71,166.71,0,0,0-23.69-1.69q-8.07,0-15.94.77c-2.22.21-4.43.47-6.63.76V147h-9v-8.35a160.61,160.61,0,0,0-48.95,17.26c.35,1.44,1,3.4,1.37,4.82s.8,2.85,1.23,4.27h10.25v9H93q1.67,4.54,3.57,9h3.75v8c0,.56,0,.67,0,1h8.91v9h-3.51q2.4,4.07,5,8h0a166.7,166.7,0,0,0,20.23,24.78l.05.06a165.25,165.25,0,0,0,75.22,43.51l.92.25c1.93.5,3.86.95,5.81,1.38a165.86,165.86,0,0,0,17.25,2.84,168.81,168.81,0,0,0,18.37,1c2,0,3.89,0,5.82-.1a165.35,165.35,0,0,0,43.39-7.33c2.57-.8,5.12-1.67,7.64-2.59q7.42-2.7,14.5-6.09l.7-.34A156.13,156.13,0,0,0,324.75,248C324.26,246.6,323.75,245.15,323.23,243.73ZM109.24,165h-9v-9h9ZM127.12,219h-9v-9h9Zm.15-54.06h-9v9h9v9h-9v-9h-9v-9h9v-9h9Zm26.89,27h-9v-9h9Zm.15-27.19h9v9h-9Zm17.92,36.19h-9v-9h9Zm18,36h-9v-9h9Z" transform="translate(-43.67 -56.87)"/><path class="cls-5" d="M154.15,57.75v8.19h9v9h-9V66h0v.13h-9V75h4.18c-.27,3.47-.37,7-.33,10.44h-8.67v9.83h9.13c.4,5.23,1,10.48,1.79,15.73h11.93v9H152.65c.42,2.6.85,5.21,1.27,7.82.19,0,4.74-.42,9.36-.62V120h8.92v-9h9v9H172.3v7.15a176.38,176.38,0,0,1,23.83,2.21A173.62,173.62,0,0,1,276.47,165a173.27,173.27,0,0,1,32.23-17.72C279.55,90.36,218.81,55.76,154.15,57.75ZM172.23,93h-9V84h9Z" transform="translate(-43.67 -56.87)"/><path class="cls-6" d="M305,208.33a166.67,166.67,0,0,0-28.85-32.4h0a164.84,164.84,0,0,0-81.36-38.08,165.81,165.81,0,0,0,35.43,143.93,168.44,168.44,0,0,0,18.35,1c2,0,3.89,0,5.82-.1a165.35,165.35,0,0,0,43.39-7.33c2.57-.8,5.12-1.67,7.64-2.59q7.42-2.7,14.5-6.09l.7-.34A156.13,156.13,0,0,0,324.75,248c-.49-1.44-1-2.89-1.52-4.31A166.27,166.27,0,0,0,305,208.33Z" transform="translate(-43.67 -56.87)"/><path class="cls-6" d="M226.66,71.37a160.53,160.53,0,0,0-29.8,58.1A173.64,173.64,0,0,1,276.47,165a173.27,173.27,0,0,1,32.23-17.72C290.87,112.47,261.5,86.43,226.66,71.37Z" transform="translate(-43.67 -56.87)"/><rect class="cls-7" x="83.57" y="108.06" width="9.01" height="9.01"/><rect class="cls-8" x="56.54" y="117.08" width="9.01" height="9.01"/><rect class="cls-9" x="65.55" y="126.09" width="9.01" height="9.01"/><rect class="cls-7" x="110.49" y="171.14" width="9.01" height="9.01"/><rect class="cls-10" x="83.61" y="90.06" width="9.01" height="9.01"/><rect class="cls-10" x="65.61" y="90.06" width="9.01" height="9.01"/><rect class="cls-10" x="137.52" y="126.06" width="9.01" height="9.01"/><rect class="cls-10" x="128.51" y="162.05" width="9.01" height="9.01"/><rect class="cls-9" x="110.52" y="144.06" width="9.01" height="9.01"/><rect class="cls-7" x="128.56" y="99.05" width="9.01" height="9.01"/><rect class="cls-10" x="137.56" y="90.13" width="9.01" height="9.01"/><rect class="cls-10" x="155.56" y="108.21" width="9.01" height="9.01"/><rect class="cls-10" x="92.46" y="135.06" width="9.01" height="9.01"/><rect class="cls-11" x="65.51" y="171.06" width="9.01" height="9.01"/><rect class="cls-11" x="47.54" y="144.11" width="9.01" height="9.01"/><rect class="cls-11" x="8.57" y="96.48" width="5.95" height="5.95"/><rect class="cls-12" x="24.88" y="94.56" width="9.01" height="9.01"/><rect class="cls-11" x="83.54" y="18.02" width="9.01" height="9.01"/><rect class="cls-11" x="92.51" y="53.97" width="9.01" height="9.01"/><rect class="cls-13" x="74.48" y="67.66" width="9.01" height="9.01"/><rect class="cls-12" x="17.86" y="78.31" width="5.49" height="5.46"/><rect class="cls-12" x="57.85" y="180.78" width="5.49" height="5.46"/><rect class="cls-12" x="31.7" y="132.52" width="5.49" height="5.46"/><rect class="cls-12" x="64.42" y="22.79" width="5.49" height="5.46"/><rect class="cls-12" x="51.42" y="10.29" width="5.49" height="5.46"/><rect class="cls-12" y="87.29" width="5.49" height="5.46"/><rect class="cls-14" x="88" width="9.01" height="9.01"/><rect class="cls-14" x="70" y="13.83" width="9.01" height="9.01"/><rect class="cls-9" x="139" y="67.78" width="10.04" height="10.04"/><rect class="cls-8" x="155.51" y="54.17" width="9.01" height="9.01"/><rect class="cls-13" x="34.3" y="111.62" width="9.01" height="9.01"/><rect class="cls-13" x="20.55" y="108.04" width="9.01" height="9.01"/><rect class="cls-13" x="33.96" y="85.62" width="9.01" height="9.01"/></svg>